<?xml version="1.0" standalone="no"?>
<!DOCTYPE svg PUBLIC "-//W3C//DTD SVG 20010904//EN"
 "http://www.w3.org/TR/2001/REC-SVG-20010904/DTD/svg10.dtd">
<svg version="1.0" xmlns="http://www.w3.org/2000/svg"
 width="1024.000000pt" height="768.000000pt" viewBox="0 0 1024.000000 768.000000"
 preserveAspectRatio="xMidYMid meet">

<g transform="translate(0.000000,768.000000) scale(0.100000,-0.100000)"
fill="#000000" stroke="none">
<path d="M0 3840 l0 -3840 5120 0 5120 0 0 3840 0 3840 -5120 0 -5120 0 0
-3840z m5462 3395 c-2 -14 -6 -25 -8 -25 -2 0 -4 11 -4 25 0 14 4 25 9 25 4 0
6 -11 3 -25z m-95 -27 c-3 -8 -6 -5 -6 6 -1 11 2 17 5 13 3 -3 4 -12 1 -19z
m-930 -25 c-3 -10 -5 -4 -5 12 0 17 2 24 5 18 2 -7 2 -21 0 -30z m273 30 c0
-5 -6 -34 -14 -65 -9 -41 -10 -59 -2 -62 6 -2 3 -5 -6 -5 -13 -1 -18 7 -18 24
0 20 -5 25 -24 25 -15 0 -27 -7 -31 -19 -3 -11 -13 -22 -22 -25 -14 -6 -14 -4
-2 10 8 9 19 29 26 43 6 14 12 20 12 14 1 -7 12 -13 25 -13 20 0 25 6 31 40 4
22 11 40 16 40 5 0 9 -3 9 -7z m124 -15 c9 -12 16 -30 16 -39 0 -9 7 -22 15
-29 18 -15 20 -50 2 -50 -7 0 -19 22 -26 50 -14 53 -27 64 -34 28 -2 -13 -4
-4 -3 19 1 48 8 53 30 21z m111 4 c-3 -3 -11 0 -18 7 -9 10 -8 11 6 5 10 -3
15 -9 12 -12z m145 -2 c12 -22 6 -51 -18 -88 -21 -32 -23 -23 -6 26 10 31 11
48 4 62 -7 13 -7 20 -1 20 6 0 15 -9 21 -20z m160 1 c13 -25 3 -76 -20 -96
-17 -16 -17 -14 -2 29 14 38 15 50 4 66 -7 11 -8 20 -2 20 5 0 14 -9 20 -19z
m-85 -31 c-19 -37 -19 -55 1 -74 14 -14 14 -16 0 -16 -16 0 -36 29 -36 53 0
14 37 67 46 67 2 0 -2 -13 -11 -30z m185 26 c0 -2 -7 -7 -16 -10 -8 -3 -12 -2
-9 4 6 10 25 14 25 6z m141 -13 c13 -16 12 -17 -3 -4 -10 7 -18 15 -18 17 0 8
8 3 21 -13z m-497 -33 c-4 -26 -2 -45 6 -55 15 -18 -1 -20 -18 -3 -15 15 -16
53 -2 79 16 30 21 23 14 -21z m-102 3 c-3 -16 -7 -22 -10 -15 -4 13 4 42 11
42 2 0 2 -12 -1 -27z m511 10 c-24 -5 -32 -23 -10 -23 19 0 57 -38 57 -57 0
-14 -2 -14 -20 2 -11 10 -20 24 -20 32 0 17 -20 17 -21 1 0 -10 -2 -10 -6 0
-2 6 -12 12 -20 12 -14 0 -14 3 2 20 10 11 28 19 39 19 20 -2 20 -2 -1 -6z
m147 -23 c0 -5 -10 -10 -22 -9 -22 0 -22 1 -3 9 11 5 21 9 23 9 1 1 2 -3 2 -9z
m-753 -42 c-3 -7 -5 -2 -5 12 0 14 2 19 5 13 2 -7 2 -19 0 -25z m-233 -10 c7
-5 4 -8 -6 -8 -12 0 -18 7 -17 23 0 15 2 17 6 7 3 -8 11 -18 17 -22z m-4393
-18 c7 -22 16 -40 21 -40 4 0 15 18 24 40 27 66 44 52 44 -34 0 -41 -4 -78
-10 -81 -6 -4 -10 19 -10 61 0 69 -7 75 -26 21 -15 -45 -28 -43 -49 5 l-19 43
-6 -70 -6 -70 -2 83 c-2 66 1 82 13 82 8 0 19 -17 26 -40z m459 30 c0 -5 -4
-10 -10 -10 -5 0 -10 5 -10 10 0 6 5 10 10 10 6 0 10 -4 10 -10z m987 -137
c14 -11 11 -13 -23 -13 -31 1 -36 3 -21 11 23 13 25 109 2 109 -20 0 -19 10 3
26 16 11 17 7 20 -54 2 -48 7 -71 19 -79z m202 133 c16 -19 16 -112 1 -131
-16 -20 -54 -19 -71 1 -7 9 -13 37 -13 64 0 27 6 55 13 64 16 20 55 21 70 2z
m190 5 c19 -12 25 -91 9 -121 -16 -30 -50 -37 -72 -15 -19 20 -22 115 -4 133
14 14 47 15 67 3z m201 -17 c15 -38 12 -87 -6 -112 -33 -47 -84 -14 -84 55 0
60 14 83 51 83 22 0 32 -6 39 -26z m3165 6 c-3 -5 -11 -10 -16 -10 -6 0 -7 5
-4 10 3 6 11 10 16 10 6 0 7 -4 4 -10z m-5007 -32 c23 -23 14 -48 -17 -48 -17
0 -33 -5 -36 -10 -10 -16 16 -42 37 -37 10 3 18 1 18 -4 0 -15 -42 -10 -62 8
-10 9 -18 29 -18 44 0 47 48 77 78 47z m58 -10 c-3 -13 -6 -40 -6 -61 0 -23
-4 -36 -10 -32 -5 3 -10 31 -10 61 0 43 3 54 16 54 12 0 15 -6 10 -22z m41 16
c-3 -3 -12 -4 -19 -1 -8 3 -5 6 6 6 11 1 17 -2 13 -5z m113 -62 c0 -40 -5 -73
-12 -80 -14 -14 -68 -16 -68 -3 0 5 9 7 20 4 20 -5 50 12 50 28 0 5 -13 6 -28
3 -34 -7 -55 14 -55 56 0 40 19 60 59 60 l34 0 0 -68z m50 8 c0 -33 -4 -60
-10 -60 -6 0 -10 27 -10 60 0 33 4 60 10 60 6 0 10 -27 10 -60z m114 44 c10
-26 7 -106 -4 -99 -5 3 -10 28 -10 56 0 41 -3 49 -19 49 -23 0 -31 -19 -31
-73 0 -22 -4 -37 -8 -31 -5 5 -7 33 -4 62 4 51 4 52 37 52 21 0 35 -6 39 -16z
m136 -52 c0 -40 -5 -73 -12 -80 -14 -14 -68 -16 -68 -2 0 5 13 7 30 4 17 -4
30 -3 31 2 12 104 7 134 -21 134 -44 0 -50 -82 -7 -100 21 -8 21 -9 2 -9 -30
-1 -45 18 -45 59 0 45 15 60 57 60 l33 0 0 -68z m180 60 c0 -4 -12 -8 -27 -7
-31 0 -40 -25 -28 -72 5 -20 11 -24 30 -21 13 3 22 1 19 -3 -8 -14 -41 -10
-58 7 -19 18 -21 75 -4 92 13 13 68 17 68 4z m88 -4 c7 -7 12 -33 12 -58 0
-46 0 -47 -34 -48 -19 -1 -39 5 -46 13 -18 22 -2 55 31 62 39 8 37 31 -3 36
l-33 4 31 1 c16 1 35 -3 42 -10z m81 -2 c-20 -10 -24 -19 -24 -53 0 -23 -3
-45 -7 -49 -5 -4 -8 20 -8 53 l0 60 32 1 c32 1 32 1 7 -12z m78 7 c-34 -5 -34
-36 0 -41 26 -4 39 -37 23 -57 -13 -16 -60 -21 -60 -7 0 5 10 8 22 8 33 -1 36
32 4 44 -15 5 -26 17 -26 28 0 25 9 32 39 31 26 -2 25 -2 -2 -6z m146 -29 c5
-16 17 -37 25 -47 12 -13 13 -20 4 -29 -8 -8 -14 -5 -20 13 -5 13 -17 41 -26
62 -10 26 -12 37 -4 35 6 -2 16 -17 21 -34z m60 -1 c-20 -51 -27 -55 -18 -13
9 41 13 50 25 50 5 0 2 -17 -7 -37z m3894 1 c-9 -9 -27 6 -27 22 0 13 2 13 16
-1 9 -9 14 -18 11 -21z m63 5 c0 -6 -4 -7 -10 -4 -5 3 -10 11 -10 16 0 6 5 7
10 4 6 -3 10 -11 10 -16z m-3773 -85 c-9 -9 -28 6 -21 18 4 6 10 6 17 -1 6 -6
8 -13 4 -17z m189 -1 c-10 -10 -19 5 -10 18 6 11 8 11 12 0 2 -7 1 -15 -2 -18z
m195 4 c-13 -13 -26 -3 -16 12 3 6 11 8 17 5 6 -4 6 -10 -1 -17z m7588 -90
c14 -12 34 -17 70 -19 14 0 25 -8 28 -19 3 -11 12 -19 19 -19 8 0 14 -5 14
-11 0 -6 7 -9 15 -5 11 4 15 -1 15 -19 0 -16 6 -25 15 -25 17 0 20 -16 5 -25
-18 -11 -11 -24 17 -31 23 -6 24 -8 10 -19 -10 -7 -17 -26 -17 -44 0 -17 -6
-34 -13 -37 -14 -5 -17 -42 -4 -60 4 -7 0 -14 -8 -17 -10 -4 -12 -1 -8 10 5
13 2 15 -11 10 -10 -4 -24 -7 -32 -7 -8 0 -19 -11 -24 -25 -6 -16 -18 -25 -32
-26 -21 0 -21 -1 -4 -8 22 -8 11 -18 -19 -17 -11 1 -20 7 -20 14 0 7 -5 16
-11 20 -6 4 -13 15 -17 25 -4 11 -17 17 -36 17 -35 0 -44 12 -43 54 0 17 -6
39 -15 48 -11 12 -13 21 -6 30 6 7 14 32 18 54 4 25 16 51 31 65 28 26 29 34
9 73 -8 15 -12 32 -9 37 5 9 35 -3 63 -24z m-8889 -562 l0 -355 -350 0 -349 0
-3 351 c-2 193 -1 353 1 355 2 2 161 4 353 4 l348 0 0 -355z m123 238 c-8 -3
-13 -24 -13 -54 0 -27 -4 -49 -10 -49 -5 0 -10 22 -10 49 0 39 -4 51 -17 54
-10 3 0 5 22 5 22 0 34 -2 28 -5z m57 -9 c0 -8 4 -13 9 -10 5 4 16 3 25 0 18
-7 23 -84 6 -84 -5 0 -10 16 -10 35 0 24 -5 35 -15 35 -15 0 -19 -10 -16 -42
1 -9 -3 -19 -9 -23 -6 -4 -10 13 -10 49 0 31 5 56 10 56 6 0 10 -7 10 -16z
m1052 9 c-10 -4 -10 -8 -1 -19 8 -10 8 -14 0 -14 -6 0 -11 -16 -11 -35 0 -49
-17 -44 -22 8 -5 45 5 67 31 66 11 0 12 -2 3 -6z m538 -49 l0 -55 -32 3 c-28
2 -34 8 -36 31 -4 33 13 58 34 50 8 -3 14 1 14 11 0 9 5 16 10 16 6 0 10 -25
10 -56z m568 39 c12 -12 13 -18 4 -21 -14 -4 -16 -52 -2 -52 6 0 10 -4 10 -10
0 -5 -6 -10 -14 -10 -16 0 -31 34 -21 49 3 5 1 13 -5 16 -8 5 -8 11 -1 19 6 7
8 16 4 19 -3 4 -3 7 1 7 4 0 15 -8 24 -17z m100 -3 c7 -12 8 -20 2 -20 -14 0
-12 -43 3 -59 10 -10 8 -12 -8 -9 -14 2 -21 14 -26 43 -10 61 4 84 29 45z m59
-6 c9 4 22 1 29 -5 16 -13 19 -79 4 -79 -5 0 -10 16 -10 35 0 24 -5 35 -14 35
-16 0 -31 -34 -21 -49 3 -5 1 -12 -5 -16 -6 -4 -10 15 -9 52 1 32 3 50 6 40 3
-12 10 -16 20 -13z m361 -24 c0 -27 -3 -52 -9 -55 -5 -4 -9 17 -9 49 0 69 16
75 18 6z m162 34 c0 -8 4 -13 9 -10 14 9 39 -4 44 -23 8 -34 -10 -61 -43 -61
-30 0 -30 0 -30 55 0 30 5 55 10 55 6 0 10 -7 10 -16z m-2685 -14 c3 -5 -2
-10 -11 -10 -16 0 -16 -1 1 -20 19 -21 14 -50 -10 -50 -18 0 -20 16 -2 23 8 3
6 9 -8 20 -16 13 -17 17 -6 31 15 18 27 20 36 6z m133 -2 c27 -27 7 -78 -30
-78 -10 0 -18 -7 -18 -16 0 -8 -4 -12 -10 -9 -5 3 -10 28 -10 55 0 42 3 49 23
53 12 2 24 5 28 6 3 0 10 -4 17 -11z m64 -10 c-7 -7 -12 -25 -12 -40 0 -15 -4
-28 -10 -28 -5 0 -10 18 -10 39 0 30 4 41 18 43 23 6 28 0 14 -14z m86 10 c26
-26 7 -78 -29 -78 -28 0 -40 55 -17 78 7 7 17 12 23 12 6 0 16 -5 23 -12z m98
2 c12 0 14 -10 10 -45 -6 -56 -11 -65 -42 -65 -30 0 -32 20 -1 21 l22 0 -23 9
c-29 12 -37 35 -23 67 8 16 17 23 27 19 9 -3 22 -6 30 -6z m67 -7 c-7 -3 -13
-18 -13 -33 0 -16 -4 -32 -10 -35 -6 -4 -10 10 -10 34 0 29 4 41 18 43 20 5
32 -3 15 -9z m61 11 c11 -4 16 -19 16 -45 0 -35 -3 -39 -25 -39 -36 0 -44 28
-16 52 18 14 20 18 7 18 -9 0 -16 5 -16 10 0 11 11 13 34 4z m146 -50 c0 -13
-4 -26 -10 -29 -6 -4 -10 8 -10 29 0 20 -4 36 -10 36 -10 0 -14 -13 -11 -42 1
-9 -3 -19 -9 -23 -6 -4 -10 5 -10 24 0 55 -28 44 -31 -12 -1 -12 -5 -4 -8 18
l-6 40 40 5 c45 6 65 -8 65 -46z m140 47 c0 -5 -6 -12 -12 -15 -10 -3 -8 -9 5
-19 22 -18 12 -47 -17 -47 -19 1 -20 2 -4 14 16 12 16 14 1 29 -13 13 -14 19
-3 31 14 18 30 21 30 7z m224 3 c24 -9 20 -44 -4 -44 -27 0 -25 -16 3 -25 19
-6 20 -8 4 -12 -37 -10 -58 28 -37 68 12 21 12 21 34 13z m91 -10 c18 -18 12
-29 -20 -37 -19 -5 -19 -5 3 -12 27 -9 29 -25 3 -25 -32 0 -45 25 -31 60 14
34 22 37 45 14z m124 2 c7 -8 11 -27 9 -43 -2 -22 -9 -29 -29 -31 -17 -2 -29
3 -33 13 -8 21 0 34 28 45 21 9 21 9 -2 9 -13 1 -20 5 -17 11 9 14 31 12 44
-4z m85 8 c11 -4 16 -19 16 -46 0 -24 -4 -37 -10 -33 -6 4 -8 14 -6 23 7 22
-8 47 -23 38 -6 -4 -11 -20 -11 -37 0 -16 -4 -29 -10 -29 -5 0 -10 18 -10 39
0 29 5 41 18 44 9 3 18 5 19 6 1 0 8 -2 17 -5z m251 -25 c8 -25 -12 -59 -35
-59 -11 0 -20 -7 -20 -16 0 -8 -4 -12 -10 -9 -5 3 -10 28 -10 55 0 43 3 49 23
52 31 5 45 -1 52 -23z m135 11 c8 -15 8 -21 -2 -24 -42 -13 -43 -15 -20 -21
27 -9 29 -25 2 -25 -34 0 -44 43 -17 78 14 17 25 15 37 -8z m150 0 c8 -15 8
-21 -2 -24 -42 -13 -43 -15 -20 -21 12 -4 22 -12 22 -17 0 -5 -10 -8 -22 -6
-27 4 -37 50 -17 74 16 19 26 18 39 -6z m84 14 c11 -4 16 -19 16 -46 0 -23 -4
-37 -10 -33 -5 3 -10 19 -10 36 0 19 -5 29 -15 29 -10 0 -15 -11 -15 -35 0
-19 -4 -35 -10 -35 -5 0 -10 18 -10 39 0 29 5 41 18 44 9 3 18 5 19 6 1 0 8
-2 17 -5z m344 -22 c3 -17 -2 -22 -17 -22 -12 0 -21 -4 -21 -10 0 -5 9 -10 20
-10 11 0 20 -4 20 -10 0 -14 -33 -13 -48 2 -17 17 -15 38 5 60 20 23 37 19 41
-10z m107 18 c3 -5 -2 -10 -11 -10 -16 0 -16 -1 1 -20 19 -21 14 -50 -10 -50
-18 0 -20 16 -2 24 10 5 10 7 0 12 -7 3 -13 14 -13 23 0 29 22 42 35 21z m69
4 c11 -4 16 -19 16 -45 0 -35 -3 -39 -25 -39 -36 0 -44 28 -16 52 18 14 20 18
7 18 -9 0 -16 5 -16 10 0 11 11 13 34 4z m134 -6 c18 -18 14 -38 -8 -38 -11 0
-20 -4 -20 -10 0 -5 7 -10 15 -10 8 0 15 -5 15 -11 0 -6 -10 -9 -22 -7 -27 4
-37 50 -17 74 14 17 21 18 37 2z m-2658 -39 c0 -24 -4 -38 -10 -34 -5 3 -10
22 -10 41 0 19 5 34 10 34 6 0 10 -18 10 -41z m800 1 c0 -22 -4 -40 -10 -40
-5 0 -10 18 -10 40 0 22 5 40 10 40 6 0 10 -18 10 -40z m215 24 c-9 -10 -14
-25 -12 -35 3 -11 1 -22 -4 -25 -5 -3 -9 13 -9 35 0 35 3 41 21 41 19 0 19 -1
4 -16z m678 9 c-7 -2 -13 -20 -13 -39 0 -19 -4 -34 -10 -34 -5 0 -10 18 -10
40 0 35 3 40 23 39 12 0 16 -3 10 -6z m120 -15 l4 -23 8 23 c7 21 25 31 25 13
0 -18 -22 -71 -30 -71 -12 0 -16 9 -25 48 -4 19 -3 32 4 32 5 0 12 -10 14 -22z
m1027 2 c0 -27 16 -25 23 2 4 12 9 19 12 16 9 -9 -16 -86 -32 -100 -18 -14
-29 -3 -15 15 8 9 9 24 2 48 -12 41 -12 39 0 39 6 0 10 -9 10 -20z m183 13
c-7 -2 -19 -2 -25 0 -7 3 -2 5 12 5 14 0 19 -2 13 -5z m54 -15 c-3 -8 -6 -5
-6 6 -1 11 2 17 5 13 3 -3 4 -12 1 -19z m49 -18 c2 -34 1 -34 -3 -3 -2 18 -11
34 -21 37 -12 3 -11 4 3 3 16 -2 20 -10 21 -37z m88 24 c3 -8 2 -12 -4 -9 -6
3 -10 10 -10 16 0 14 7 11 14 -7z m109 9 c-7 -2 -19 -2 -25 0 -7 3 -2 5 12 5
14 0 19 -2 13 -5z m71 0 c-5 -5 -12 -12 -16 -18 -4 -6 -8 -2 -8 8 0 9 7 17 17
17 9 0 12 -3 7 -7z m243 -13 c3 -10 2 -11 -4 -4 -4 6 -15 14 -23 17 -11 5 -9
6 4 4 11 -1 21 -9 23 -17z m-470 -12 c-3 -8 -6 -5 -6 6 -1 11 2 17 5 13 3 -3
4 -12 1 -19z m173 -25 c0 -25 -15 -12 -17 14 -1 19 1 22 8 12 5 -8 9 -20 9
-26z m5270 -23 c15 -13 26 -17 30 -10 4 7 18 8 35 4 18 -5 30 -2 36 7 6 11 9
8 9 -8 0 -59 -119 -55 -141 5 -10 27 1 28 31 2z m-2093 -16 c9 -23 -13 -40
-32 -24 -12 10 -13 16 -4 26 15 18 28 18 36 -2z m101 -6 c-2 -13 -10 -23 -18
-23 -8 0 -16 10 -18 23 -3 17 2 22 18 22 16 0 21 -5 18 -22z m2045 -92 c8 8
27 -40 27 -67 0 -17 -3 -18 -20 -9 -24 13 -71 80 -64 92 3 4 15 1 28 -7 12 -8
25 -12 29 -9z m47 -106 c0 -5 -5 -10 -11 -10 -5 0 -7 5 -4 10 3 6 8 10 11 10
2 0 4 -4 4 -10z m-30 -19 c0 -6 -4 -13 -10 -16 -5 -3 -10 1 -10 9 0 9 5 16 10
16 6 0 10 -4 10 -9z m-2563 -103 c-2 -18 -4 -4 -4 32 0 36 2 50 4 33 2 -18 2
-48 0 -65z m63 82 c0 -5 -2 -10 -4 -10 -3 0 -8 5 -11 10 -3 6 -1 10 4 10 6 0
11 -4 11 -10z m1217 -97 c-2 -21 -4 -4 -4 37 0 41 2 58 4 38 2 -21 2 -55 0
-75z m1348 97 c3 -5 -1 -10 -10 -10 -9 0 -13 5 -10 10 3 6 8 10 10 10 2 0 7
-4 10 -10z m-3365 -8 c0 -5 -13 -7 -30 -4 -16 2 -30 6 -30 8 0 2 14 4 30 4 17
0 30 -4 30 -8z m650 -6 c0 -3 -4 -8 -10 -11 -5 -3 -10 -1 -10 4 0 6 5 11 10
11 6 0 10 -2 10 -4z m2660 -20 c0 -3 -4 -8 -10 -11 -5 -3 -10 -1 -10 4 0 6 5
11 10 11 6 0 10 -2 10 -4z m-3377 -16 c7 -6 21 -17 32 -26 17 -13 16 -13 -12
0 -17 9 -35 20 -38 26 -8 13 2 13 18 0z m471 1 c4 -5 -3 -7 -14 -4 -23 6 -26
13 -6 13 8 0 17 -4 20 -9z m479 2 c-7 -2 -19 -2 -25 0 -7 3 -2 5 12 5 14 0 19
-2 13 -5z m136 -7 c7 -8 11 -32 8 -53 l-4 -38 -1 42 c-1 28 -8 45 -19 52 -10
6 -13 11 -7 11 6 0 17 -6 23 -14z m251 -1 c6 -8 10 -20 7 -27 -3 -8 -6 -6 -6
5 -1 10 -11 22 -23 27 -16 6 -18 9 -7 9 9 1 22 -6 29 -14z m-1103 -17 c-3 -8
-6 -5 -6 6 -1 11 2 17 5 13 3 -3 4 -12 1 -19z m300 -45 c-2 -16 -4 -5 -4 22 0
28 2 40 4 28 2 -13 2 -35 0 -50z m503 58 c0 -6 -4 -13 -10 -16 -5 -3 -10 1
-10 9 0 9 5 16 10 16 6 0 10 -4 10 -9z m237 -13 c-3 -8 -6 -5 -6 6 -1 11 2 17
5 13 3 -3 4 -12 1 -19z m2073 12 c0 -5 -4 -10 -10 -10 -5 0 -10 5 -10 10 0 6
5 10 10 10 6 0 10 -4 10 -10z m-3030 -35 c0 -5 -5 -3 -10 5 -5 8 -10 20 -10
25 0 6 5 3 10 -5 5 -8 10 -19 10 -25z m660 -11 c0 -28 -4 -43 -10 -39 -6 3 -7
17 -4 31 5 19 2 24 -12 25 -17 1 -17 2 -1 6 9 2 17 9 17 14 0 5 2 9 5 9 3 0 5
-21 5 -46z m2420 42 c0 -3 -4 -8 -10 -11 -5 -3 -10 -1 -10 4 0 6 5 11 10 11 6
0 10 -2 10 -4z m-1417 -13 c-7 -2 -21 -2 -30 0 -10 3 -4 5 12 5 17 0 24 -2 18
-5z m-1844 -6 c-2 -1 -12 -9 -22 -16 -15 -12 -17 -12 -11 3 3 9 13 16 22 16 8
0 13 -1 11 -3z m48 -3 c-3 -3 -12 -4 -19 -1 -8 3 -5 6 6 6 11 1 17 -2 13 -5z
m531 -11 c27 5 31 3 41 -24 6 -18 6 -27 1 -24 -6 4 -10 13 -10 21 0 10 -12 14
-40 14 -31 0 -40 4 -40 18 0 14 2 14 9 3 6 -9 19 -12 39 -8z m1102 -17 c0 -6
-5 -3 -11 7 -9 15 -13 16 -27 5 -15 -12 -16 -11 -3 5 10 13 17 15 27 6 8 -6
14 -17 14 -23z m764 -26 c12 0 27 5 34 12 9 9 12 9 12 1 0 -7 -8 -14 -17 -16
-29 -8 -133 -7 -133 1 0 4 15 7 33 7 28 0 33 4 37 30 l4 30 4 -32 c3 -26 8
-33 26 -33z m-2517 18 c-3 -7 -5 -2 -5 12 0 14 2 19 5 13 2 -7 2 -19 0 -25z
m1970 26 c-3 -3 -12 -4 -19 -1 -8 3 -5 6 6 6 11 1 17 -2 13 -5z m440 -16 c-3
-8 -6 -5 -6 6 -1 11 2 17 5 13 3 -3 4 -12 1 -19z m199 -24 c-3 -8 -13 -14 -23
-14 -17 1 -17 1 0 11 9 5 18 20 18 32 1 18 2 19 6 4 3 -10 2 -25 -1 -33z
m-1762 21 c-4 -9 2 -18 17 -24 14 -6 18 -10 9 -10 -9 -1 -21 4 -28 11 -14 14
-16 38 -2 38 5 0 7 -7 4 -15z m428 -17 c-8 -8 -9 -4 -5 13 4 13 8 18 11 10 2
-7 -1 -18 -6 -23z m1668 22 c0 -5 -4 -10 -10 -10 -5 0 -10 5 -10 10 0 6 5 10
10 10 6 0 10 -4 10 -10z m250 -4 c0 -8 -4 -18 -10 -21 -5 -3 -10 3 -10 14 0
12 5 21 10 21 6 0 10 -6 10 -14z m80 5 c0 -6 -4 -13 -10 -16 -5 -3 -10 1 -10
9 0 9 5 16 10 16 6 0 10 -4 10 -9z m104 -7 c9 -24 7 -28 -9 -14 -17 14 -20 30
-6 30 5 0 12 -7 15 -16z m76 12 c0 -3 -4 -8 -10 -11 -5 -3 -10 -1 -10 4 0 6 5
11 10 11 6 0 10 -2 10 -4z m47 -18 c-3 -8 -6 -5 -6 6 -1 11 2 17 5 13 3 -3 4
-12 1 -19z m80 -10 c-3 -7 -5 -2 -5 12 0 14 2 19 5 13 2 -7 2 -19 0 -25z m123
28 c0 -2 3 -13 6 -23 5 -17 5 -17 -6 0 -6 10 -23 17 -40 17 -19 0 -30 -6 -33
-17 -4 -14 -5 -12 -6 5 -1 19 4 22 39 22 22 0 40 -2 40 -4z m-3340 -27 c0 -6
-4 -7 -10 -4 -5 3 -10 11 -10 16 0 6 5 7 10 4 6 -3 10 -11 10 -16z m750 -12
c12 -4 12 -6 -2 -6 -10 -1 -22 9 -28 22 -9 19 -9 20 2 6 7 -9 20 -18 28 -22z
m100 18 c0 -8 -4 -15 -10 -15 -5 0 -7 7 -4 15 4 8 8 15 10 15 2 0 4 -7 4 -15z
m609 -16 c-16 -10 -116 -12 -106 -3 3 4 27 6 52 6 34 -1 48 3 52 15 5 12 8 13
11 4 2 -7 -2 -17 -9 -22z m116 21 c-3 -5 -11 -10 -16 -10 -6 0 -7 5 -4 10 3 6
11 10 16 10 6 0 7 -4 4 -10z m344 -15 c34 5 43 4 35 -5 -6 -6 -31 -10 -55 -8
-35 2 -44 7 -47 23 -3 19 -2 19 9 2 9 -16 19 -18 58 -12z m-2194 -8 c19 -4 19
-5 -1 -6 -12 0 -28 7 -35 17 -12 15 -12 16 1 6 8 -7 24 -14 35 -17z m508 8
c-3 -9 -8 -14 -10 -11 -3 3 -2 9 2 15 9 16 15 13 8 -4z m977 -8 l55 -3 -56 -2
c-44 -2 -60 2 -70 16 -12 15 -12 16 1 5 9 -6 40 -13 70 -16z m-1614 -5 c-16
-2 -32 0 -37 5 -5 5 7 7 29 4 34 -5 35 -6 8 -9z m324 14 c0 -3 -4 -8 -10 -11
-5 -3 -10 -1 -10 4 0 6 5 11 10 11 6 0 10 -2 10 -4z m1615 -6 c-3 -5 -18 -9
-33 -9 l-27 1 30 8 c17 4 31 8 33 9 2 0 0 -3 -3 -9z m-1498 -6 c-3 -3 -12 -4
-19 -1 -8 3 -5 6 6 6 11 1 17 -2 13 -5z m1596 -1 c-7 -2 -21 -2 -30 0 -10 3
-4 5 12 5 17 0 24 -2 18 -5z m654 1 c-3 -3 -12 -4 -19 -1 -8 3 -5 6 6 6 11 1
17 -2 13 -5z m-897 -28 c0 -2 -8 -10 -17 -17 -16 -13 -17 -12 -4 4 13 16 21
21 21 13z m437 -22 c-3 -3 -12 -4 -19 -1 -8 3 -5 6 6 6 11 1 17 -2 13 -5z
m200 0 c-3 -3 -12 -4 -19 -1 -8 3 -5 6 6 6 11 1 17 -2 13 -5z m-6627 -128 c0
-64 0 -64 -30 -71 -19 -4 -36 -2 -45 5 -33 28 -6 98 34 87 17 -4 21 -1 21 19
0 13 5 24 10 24 6 0 10 -28 10 -64z m2218 52 c-30 -10 -36 -23 -15 -31 9 -4 9
-8 -1 -15 -8 -5 -12 -22 -11 -38 2 -16 -1 -30 -6 -31 -6 -2 -10 12 -10 30 0
17 -4 36 -10 40 -7 6 -6 10 3 14 6 2 12 13 12 24 0 15 7 19 33 18 l32 -1 -27
-10z m62 -59 c0 -38 -4 -68 -8 -65 -4 2 -7 33 -6 68 3 71 2 68 9 68 3 0 5 -32
5 -71z m5058 64 c-22 -5 -24 -23 -3 -23 8 0 15 -5 15 -11 0 -5 -5 -7 -11 -3
-6 3 -15 0 -20 -7 -6 -10 -9 -4 -9 19 0 27 4 32 23 31 16 -1 18 -2 5 -6z m86
-9 c3 -9 6 -21 5 -27 0 -7 -5 -1 -10 12 -6 15 -15 21 -24 17 -8 -3 -15 -1 -15
4 0 16 37 11 44 -6z m104 9 c-10 -2 -18 -8 -18 -13 0 -5 8 -11 18 -13 13 -4
11 -5 -5 -6 -17 -1 -23 5 -23 19 0 14 6 20 23 19 16 -1 18 -2 5 -6z m72 -3 c0
-5 -7 -7 -15 -4 -8 4 -15 1 -15 -5 0 -6 6 -11 13 -11 8 0 9 -3 1 -8 -6 -4 -14
-14 -17 -22 -3 -8 -6 2 -6 23 -1 31 2 37 19 37 11 0 20 -4 20 -10z m101 -13
c-13 -13 -26 -3 -16 12 3 6 11 8 17 5 6 -4 6 -10 -1 -17z m63 -1 c-6 -15 -24
-23 -24 -11 0 8 24 34 28 30 1 -1 0 -10 -4 -19z m-7981 1 c4 -10 -2 -13 -19
-9 -30 5 -54 -13 -54 -43 0 -30 24 -48 54 -43 17 4 23 1 19 -9 -8 -22 -60 -16
-77 9 -22 31 -20 64 6 88 25 23 63 27 71 7z m1688 -32 c11 -25 22 -45 24 -45
2 0 13 20 25 45 12 25 26 43 31 39 5 -3 9 -33 9 -67 0 -62 -15 -70 -23 -12
l-4 30 -14 -32 c-13 -33 -39 -45 -39 -19 0 8 -9 24 -20 37 l-21 24 3 -37 c1
-20 -1 -40 -5 -44 -4 -4 -7 23 -7 59 0 79 13 86 41 22z m-1928 15 c20 -28 10
-69 -18 -76 -38 -9 -59 -1 -69 28 -19 53 55 94 87 48z m335 -12 c7 -7 12 -24
12 -38 0 -52 -61 -71 -82 -25 -23 51 32 101 70 63z m210 0 c7 -7 12 -20 12
-30 0 -13 -8 -18 -30 -18 -16 0 -30 -4 -30 -10 0 -5 11 -10 25 -10 14 0 25 -4
25 -10 0 -14 -43 -13 -58 2 -25 25 -6 88 26 88 10 0 23 -5 30 -12z m208 -43
c2 -48 2 -48 -5 -10 -8 53 -35 55 -39 3 -4 -51 -22 -49 -22 2 0 45 -26 58 -34
18 -3 -13 -7 -32 -9 -43 -3 -11 -5 3 -6 31 l-1 50 58 0 57 -1 1 -50z m92 43
c7 -7 12 -20 12 -30 0 -13 -8 -18 -31 -18 -17 0 -28 -4 -24 -10 3 -5 15 -10
25 -10 10 0 22 -4 25 -10 4 -6 -7 -10 -25 -10 -24 0 -33 6 -41 27 -19 49 25
95 59 61z m82 2 c0 -4 -7 -10 -15 -14 -9 -3 -15 -19 -15 -41 0 -22 -4 -34 -10
-30 -10 6 -14 77 -5 86 8 8 45 8 45 -1z m101 -51 c-1 -30 -7 -60 -13 -66 -12
-15 -72 -18 -63 -3 3 6 17 10 30 10 12 0 25 6 28 14 4 10 0 12 -14 9 -26 -7
-49 14 -49 46 0 36 18 52 54 48 30 -3 30 -4 27 -58z m99 41 c14 -26 5 -40 -26
-40 -13 0 -24 -4 -24 -10 0 -5 11 -10 25 -10 14 0 25 -4 25 -10 0 -14 -43 -13
-58 2 -7 7 -12 24 -12 38 0 48 49 69 70 30z m989 -2 c11 -30 6 -38 -25 -38
-13 0 -24 -4 -24 -10 0 -5 11 -10 25 -10 14 0 25 -4 25 -10 0 -14 -43 -13 -58
2 -7 7 -12 24 -12 38 0 49 53 70 69 28z m67 7 c-10 -8 -22 -31 -26 -52 -8 -38
-8 -38 -9 12 -1 48 0 51 27 53 25 1 26 1 8 -13z m114 -39 c0 -56 -20 -86 -57
-86 -32 0 -29 18 4 22 14 2 28 8 30 14 2 7 -6 10 -21 7 -35 -7 -56 35 -36 72
11 20 20 24 47 22 33 -2 33 -3 33 -51z m37 -23 c-2 -16 -4 -3 -4 27 0 30 2 43
4 28 2 -16 2 -40 0 -55z m101 65 c14 -12 16 -78 2 -78 -5 0 -10 14 -10 30 0
18 -6 33 -15 37 -21 7 -27 0 -35 -44 -8 -38 -8 -38 -9 12 -1 48 0 50 27 52 15
1 33 -3 40 -9z m110 -37 c4 -53 -18 -91 -53 -91 -34 0 -32 18 2 22 14 2 28 8
30 15 3 7 -3 9 -16 6 -28 -7 -51 14 -51 46 0 36 18 52 55 48 28 -3 30 -7 33
-46z m152 -2 c0 -31 -4 -48 -10 -44 -17 11 -12 95 7 95 2 0 3 -23 3 -51z m128
39 c7 -7 12 -20 12 -30 0 -13 -8 -18 -31 -18 -17 0 -28 -4 -24 -10 3 -5 15
-10 26 -10 10 0 19 -4 19 -10 0 -5 -11 -10 -25 -10 -35 0 -54 40 -35 75 14 27
39 32 58 13z m82 2 c0 -5 -7 -10 -15 -10 -21 0 -19 -9 6 -28 26 -22 16 -52
-17 -52 -13 0 -24 5 -24 10 0 6 9 10 20 10 26 0 25 8 -2 29 -13 11 -19 24 -15
34 7 18 47 24 47 7z m5270 3 c0 -5 -11 -8 -24 -8 -13 0 -22 3 -19 8 2 4 13 7
24 7 10 0 19 -3 19 -7z m-5030 -4303 c0 -5 -9 -10 -20 -10 -27 0 -25 -28 3
-40 l22 -9 -22 0 c-34 -1 -32 -41 2 -41 14 0 25 -5 25 -11 0 -6 -12 -9 -27 -7
-27 3 -28 6 -31 66 -3 61 -2 62 23 62 14 0 25 -4 25 -10z m91 -6 c9 -11 10
-20 2 -32 -8 -13 -7 -24 4 -45 8 -16 12 -31 9 -34 -2 -3 -12 9 -21 27 -18 34
-40 35 -39 1 0 -11 -3 -21 -8 -21 -10 0 -11 104 -1 113 12 12 40 7 54 -9z
m119 6 c0 -5 -14 -10 -30 -10 -23 0 -33 -6 -39 -22 -12 -32 2 -62 29 -66 30
-5 45 19 23 36 -15 11 -15 12 5 12 16 0 22 -6 22 -23 0 -50 -58 -65 -86 -22
-19 29 -12 72 14 92 20 15 62 17 62 3z m118 -43 l27 -42 6 50 6 50 1 -62 c1
-35 -1 -63 -5 -63 -5 1 -21 20 -38 43 l-30 42 -6 -45 c-6 -43 -6 -42 -7 18 -2
71 4 72 46 9z m157 43 c4 -6 -6 -10 -22 -10 -34 0 -53 -16 -53 -45 0 -27 18
-45 47 -45 27 0 31 24 6 39 -16 9 -16 10 5 11 15 0 22 -6 22 -19 0 -33 -11
-51 -33 -51 -50 0 -76 72 -40 112 17 19 58 24 68 8z m-649 -40 c13 -32 19 -38
30 -30 7 6 16 25 19 41 4 16 13 29 21 29 10 0 14 -14 14 -55 0 -61 -19 -77
-21 -17 l-1 37 -16 -37 c-10 -21 -20 -38 -23 -38 -3 0 -14 19 -25 43 l-19 42
-6 -45 -6 -45 -1 58 c-2 67 11 74 34 17z m411 -42 c-2 -18 -4 -6 -4 27 0 33 2
48 4 33 2 -15 2 -42 0 -60z m390 -265 c-273 -2 -721 -2 -995 0 -273 1 -49 2
498 2 547 0 771 -1 497 -2z m-5373 -702 c-4 -17 -9 -30 -11 -27 -3 2 -2 19 2
36 9 41 17 33 9 -9z"/>
<path d="M1756 7078 c-15 -57 0 -118 29 -118 19 0 35 32 35 70 0 17 -5 40 -10
51 -15 26 -46 24 -54 -3z"/>
<path d="M1950 7074 c-27 -69 18 -154 50 -95 11 22 13 80 4 105 -10 25 -43 19
-54 -10z"/>
<path d="M2146 7084 c-9 -24 -7 -97 4 -114 26 -42 62 41 46 107 -7 26 -41 32
-50 7z"/>
<path d="M316 7045 c-9 -24 -8 -25 20 -25 19 0 25 5 22 17 -4 23 -34 28 -42 8z"/>
<path d="M512 7048 c-24 -24 -11 -88 17 -88 34 0 51 41 35 84 -7 19 -35 21
-52 4z"/>
<path d="M1100 7005 c-16 -19 -5 -47 17 -43 23 4 31 58 10 58 -8 0 -20 -7 -27
-15z"/>
<path d="M9637 6760 c-3 -13 -9 -21 -13 -17 -13 12 -44 -41 -43 -75 0 -18 3
-27 6 -20 2 6 14 12 25 12 18 0 19 4 14 34 -5 26 -3 37 10 44 9 5 14 17 12 28
-3 16 -5 15 -11 -6z"/>
<path d="M9785 6760 c3 -5 8 -10 11 -10 2 0 4 5 4 10 0 6 -5 10 -11 10 -5 0
-7 -4 -4 -10z"/>
<path d="M9686 6742 c-2 -4 -1 -14 5 -22 7 -12 9 -10 9 8 0 23 -5 28 -14 14z"/>
<path d="M9796 6732 c-2 -4 -1 -14 4 -21 10 -17 31 -5 23 14 -6 16 -19 20 -27
7z"/>
<path d="M9808 6688 c-29 -10 -38 -28 -14 -28 7 0 20 -14 28 -31 15 -29 16
-30 20 -7 2 13 1 35 -2 49 -4 23 -8 25 -32 17z"/>
<path d="M9666 6664 c-3 -8 -10 -13 -14 -10 -20 12 -52 -25 -52 -60 0 -30 4
-35 30 -40 16 -4 35 -13 41 -20 18 -21 66 -18 72 5 3 14 11 18 26 14 28 -7 51
13 51 47 0 39 -21 53 -62 43 -18 -5 -46 -7 -61 -5 -22 3 -27 7 -22 23 8 23 0
26 -9 3z"/>
<path d="M2498 6498 c-7 -19 2 -38 18 -38 8 0 14 10 14 25 0 26 -24 35 -32 13z"/>
<path d="M3807 6504 c-15 -15 -7 -45 11 -42 9 2 17 12 17 22 0 20 -16 31 -28
20z"/>
<path d="M1206 6495 c-8 -21 1 -35 20 -35 10 0 14 8 12 22 -4 27 -23 34 -32
13z"/>
<path d="M1356 6494 c-8 -20 1 -34 20 -34 8 0 14 10 14 25 0 28 -24 34 -34 9z"/>
<path d="M1453 6494 c-8 -20 13 -42 27 -28 12 12 3 44 -11 44 -5 0 -12 -7 -16
-16z"/>
<path d="M1600 6470 c0 -5 5 -10 10 -10 6 0 10 5 10 10 0 6 -4 10 -10 10 -5 0
-10 -4 -10 -10z"/>
<path d="M2310 6470 c0 -5 7 -10 15 -10 8 0 15 5 15 10 0 6 -7 10 -15 10 -8 0
-15 -4 -15 -10z"/>
<path d="M2636 6493 c-9 -22 10 -41 25 -26 13 13 5 43 -10 43 -5 0 -12 -8 -15
-17z"/>
<path d="M3550 6470 c0 -5 4 -10 9 -10 6 0 13 5 16 10 3 6 -1 10 -9 10 -9 0
-16 -4 -16 -10z"/>
<path d="M2124 5846 c-9 -24 4 -48 23 -44 12 2 18 12 18 28 0 29 -32 41 -41
16z"/>
<path d="M2012 5833 c2 -20 8 -28 23 -28 31 0 28 49 -3 53 -20 3 -23 0 -20
-25z"/>
<path d="M2230 5850 c0 -5 9 -10 20 -10 11 0 20 5 20 10 0 6 -9 10 -20 10 -11
0 -20 -4 -20 -10z"/>
<path d="M2535 5850 c-3 -5 3 -10 14 -10 12 0 21 5 21 10 0 6 -6 10 -14 10 -8
0 -18 -4 -21 -10z"/>
<path d="M2700 5830 c0 -23 5 -30 19 -30 20 0 37 32 26 50 -3 5 -15 10 -26 10
-14 0 -19 -7 -19 -30z"/>
<path d="M2810 5850 c0 -5 9 -10 20 -10 11 0 20 5 20 10 0 6 -9 10 -20 10 -11
0 -20 -4 -20 -10z"/>
<path d="M3800 5850 c0 -5 9 -10 20 -10 11 0 20 5 20 10 0 6 -9 10 -20 10 -11
0 -20 -4 -20 -10z"/>
<path d="M3964 5846 c-9 -24 4 -48 23 -44 12 2 18 12 18 28 0 29 -32 41 -41
16z"/>
<path d="M4210 5830 c0 -23 5 -30 19 -30 20 0 37 32 26 50 -3 5 -15 10 -26 10
-14 0 -19 -7 -19 -30z"/>
<path d="M4515 5850 c-3 -5 3 -10 14 -10 12 0 21 5 21 10 0 6 -6 10 -14 10 -8
0 -18 -4 -21 -10z"/>
<path d="M4922 1543 c4 -22 43 -25 43 -3 0 8 -11 16 -23 18 -19 3 -23 0 -20
-15z"/>
</g>
</svg>
